<svg id="Layer_1" data-name="Layer 1" xmlns="http://www.w3.org/2000/svg" viewBox="0 0 485.92 632.91"><defs><style>.cls-1{fill:#231f20;}.cls-2{fill:#ed1c24;}</style></defs><title>hero_logo</title><path class="cls-1" d="M165.91,717.21c1.41-2.63,2.31-4.33,2.72-5.1a51.69,51.69,0,0,0,2.3-4.91l.27-.66-2-.06-1.22.25-.11.14a22.37,22.37,0,0,0-2.79,5.15q-2.45,5.64-2.72,6.25a10.16,10.16,0,0,1-2.69,4c-.46.32-1.66.74-4.8.93a25,25,0,0,0-3.06.29,2.82,2.82,0,0,1-.5-.25c.36-.54,1.43-2,4.45-5.79a7,7,0,0,0,1.81-4.19,4,4,0,0,0-.38-1.55l-.19-.45-.45.18c-.88.34-1.88,1.48-3.17,3.57-2.08,3.4-3.23,5-3.23,5-1.24,1.65-1.89,2.38-2.22,2.75a12.2,12.2,0,0,0-1.16,1.45L142.52,729a6.15,6.15,0,0,0-1.68,3.37l-.07.55h1c1.15.08,2.31-.65,3.43-2.18a15.13,15.13,0,0,1,3.31-3.61c1.86-1.25,4.55-1.89,8-1.89a12.36,12.36,0,0,1,1.3.06l-3.56,5.42c-2.81,4.25-3.14,5.57-3.14,6.19v.5h.5a8.8,8.8,0,0,0,2.16-.12,2.74,2.74,0,0,0,1.54-1.76c.25-.65.42-1.11.5-1.35a23.53,23.53,0,0,1,2.4-4l3-4.32a27.29,27.29,0,0,0,2.19-3.57C164,720.87,164.88,719.18,165.91,717.21Z" transform="translate(-54.68 -104.49)"/><path class="cls-1" d="M213.18,719.54c-1.25,0-3,.62-5.34,1.9q-2.9,1.59-4.34,2.42c-.16-.71-.27-1.18-.34-1.44-.55-1.91-1.43-2.88-2.63-2.88a6.47,6.47,0,0,0-2.31.72,20.51,20.51,0,0,1-3.86,1.56c-.84.08-1.56.74-2.2,2a15.41,15.41,0,0,1-2.23,2.81c-3.2,3.57-3.63,4.61-3.63,5.16v1.11h.5c1,0,2.32-.73,3.88-2.25l4.42-4.28a22.52,22.52,0,0,1,4.28-3.37l.24.5h0a2.4,2.4,0,0,1,.17.88,3.09,3.09,0,0,1-1.1,2.22c-2.64,2.55-3,3.36-3.07,3.82l0,.44.94.2h.1c.53,0,1.58-.28,5.1-2.46,2.18-1.38,3.81-2.43,4.89-3.13a28.12,28.12,0,0,1,4.51-2.38,28.79,28.79,0,0,1-2.65,5,8.24,8.24,0,0,0-1.4,4.17c0,2,1,2.65,1.84,2.87l.15,0,.15-.05a1.69,1.69,0,0,0,1.27-1.59,4.59,4.59,0,0,0-.07-.81,7.53,7.53,0,0,1-.16-1.06c0-.14.1-.75,1.48-3,.86-1.34,1.51-2.33,1.94-3a7.33,7.33,0,0,0,1.34-4C215,719.83,213.86,719.54,213.18,719.54Z" transform="translate(-54.68 -104.49)"/><path class="cls-1" d="M184.66,722.29c1.23-1.46,1.82-2.63,1.82-3.58l-.28-.92-.13-.1c-1.13-.8-2-.59-3.66,1.61l-2.72,3.77a16.53,16.53,0,0,1-2.59,3,22.51,22.51,0,0,1-5.39,2.92l-2.13.91a5.66,5.66,0,0,1-2.06.44l-.64,0-.44,0a20,20,0,0,1,2.61-3.56c1.45-1.63,2.53-2.84,3.27-3.64,2.3-2.66,2.6-3.57,2.6-4.07a1.08,1.08,0,0,0-1.15-1.18c-.49,0-1.33.35-3.85,2.91a63.68,63.68,0,0,0-4.25,4.76c-2.9,3.56-3.24,4.77-3.24,5.38,0,1.43,1.32,2.16,3.93,2.16a16.6,16.6,0,0,0,7.63-2.41c.53-.3,1.35-.81,2.51-1.54v.63a3.77,3.77,0,0,0,.6,2.36,2.92,2.92,0,0,0,2.35.86,8.21,8.21,0,0,0,1.8-.25c1-.28,1.57-.42,1.66-.44l.79-.21-1.11-1.26-.14,0a4.24,4.24,0,0,0-1.23-.19h-.41a3.45,3.45,0,0,1-.52,0c-.68,0-.68-.25-.68-.45a6.36,6.36,0,0,1,1.69-3.8Q183.71,723.42,184.66,722.29Z" transform="translate(-54.68 -104.49)"/><path class="cls-1" d="M359.2,719.82l-.35.29a6.52,6.52,0,0,0-2,2.73c-.52,1.44-.87,2.44-1.05,3a11.72,11.72,0,0,1-.84,1.44,3.67,3.67,0,0,0-.65,1.93,4.33,4.33,0,0,0,.09.77,3.45,3.45,0,0,1,.08.59v.5h.5a5.32,5.32,0,0,0,1.7-.17,2.53,2.53,0,0,0,1.35-1.44l.71-1.8c1.94-4.95,1.94-5.38,1.94-5.59,0-.51-.37-1.12-1.17-1.92Z" transform="translate(-54.68 -104.49)"/><path class="cls-1" d="M338.19,721.91a3.85,3.85,0,0,0-1.07-2.84,1.71,1.71,0,0,0-1.27-.45c-.21,0-.64,0-4.81,1.74-1.11.45-2.36,1-3.75,1.59,5.19-10.46,5.19-10.82,5.19-11.06a1.35,1.35,0,0,0-.68-1.17l-.86-.52-.32-.18-.27.24a13,13,0,0,0-2.58,4.33c-1.63,3.91-1.94,4.56-2,4.66-.44.75-1.53,2.28-3.24,4.55-2.53,3.36-3.82,5.05-4.31,5.67-2,2.64-2.35,3.44-2.44,3.83l-.11.5.5.1a17,17,0,0,1,2.17.56l.45.16.19-.44a17.67,17.67,0,0,1,6.52-7.63,20.79,20.79,0,0,1,8.92-3.66.88.88,0,0,0,0,.16,4.21,4.21,0,0,1,.06.57c0,.66-.33,2.14-1.94,5.41-1.37,2.8-2,4.65-2,5.64a1.62,1.62,0,0,0,1.76,1.79,5,5,0,0,0,2.14-.7l.47-.25-.27-.45a3.18,3.18,0,0,1-.48-1.65c0-.48.34-1.72,2-4.83C337.51,724.89,338.19,723,338.19,721.91Z" transform="translate(-54.68 -104.49)"/><path class="cls-1" d="M362.57,713.39l-.52-.49c-.89-1.63-1.23-2-1.47-2.13l-.7-.42-.05.82a6.62,6.62,0,0,1-.4,1.49,5.67,5.67,0,0,0-.42,1.87c0,.52.19,1.73,2,1.73s2.14-1.21,2.14-1.73A1.56,1.56,0,0,0,362.57,713.39Z" transform="translate(-54.68 -104.49)"/><path class="cls-1" d="M352.28,731.38a3.13,3.13,0,0,1-.39-1.92,17.61,17.61,0,0,1,1.43-3.31,12.34,12.34,0,0,0,1.53-5.13,3.62,3.62,0,0,0-.93-2.25,2.78,2.78,0,0,0-2.12-1.17,12.84,12.84,0,0,0-4.71,1.58,29.61,29.61,0,0,0-4.29,2.46c-3.3,2.38-5,5.14-5,8.22a2.89,2.89,0,0,0,3.19,3.22,12.1,12.1,0,0,0,4.23-1c.65-.26,1.81-.78,3.46-1.57a11.85,11.85,0,0,0,1.61,2.44c1,1.27,2,1.89,2.94,1.89s1.64-.65,2.22-1.93l.27-.59-.64-.11C352.67,731.77,352.32,731.43,352.28,731.38Zm-2.15-6.56c-1.95,2.78-2.62,3.62-2.83,3.84a6.48,6.48,0,0,1-4.72,1.93,2.79,2.79,0,0,1-1.47-.37,1.15,1.15,0,0,1-.58-1c0-.64.43-1.85,2.45-4a23.28,23.28,0,0,1,3.86-3.39,8.44,8.44,0,0,1,4.86-1.31c1.6,0,1.6.54,1.6.72a3.53,3.53,0,0,1-.28,1.33C352.05,722.66,351.1,723.42,350.13,724.82Z" transform="translate(-54.68 -104.49)"/><path class="cls-1" d="M254.83,719.54c-1.25,0-3,.62-5.34,1.9-1.94,1.06-3.38,1.87-4.35,2.42-.15-.69-.26-1.18-.34-1.44-.54-1.91-1.42-2.88-2.62-2.88a6.51,6.51,0,0,0-2.32.72,20.13,20.13,0,0,1-3.85,1.56c-.85.08-1.57.74-2.2,2a15.81,15.81,0,0,1-2.23,2.81c-3.2,3.57-3.63,4.61-3.63,5.16v1.11h.5c1.05,0,2.32-.73,3.88-2.25l4.42-4.28A22.22,22.22,0,0,1,241,723c.15.33.24.5.24.5a2.4,2.4,0,0,1,.17.88,3.09,3.09,0,0,1-1.1,2.22c-2.64,2.55-3,3.36-3.08,3.82l0,.44,1.05.21c.53,0,1.58-.28,5.1-2.46l4.89-3.13a28.52,28.52,0,0,1,4.5-2.38,28.44,28.44,0,0,1-2.64,5,8.21,8.21,0,0,0-1.4,4.17c0,2,1,2.65,1.84,2.87l.15,0,.15-.05a1.69,1.69,0,0,0,1.27-1.59,4.67,4.67,0,0,0-.07-.81,8.31,8.31,0,0,1-.17-1.06c0-.14.11-.75,1.49-3,.86-1.34,1.5-2.33,1.94-3a7.39,7.39,0,0,0,1.33-4C256.65,719.83,255.51,719.54,254.83,719.54Z" transform="translate(-54.68 -104.49)"/><path class="cls-1" d="M272.36,729.79l-.18,0c-1.2,0-2.78.13-4.83.34-1.33.13-2.51.2-3.52.2-3.64,0-3.64-1.34-3.64-1.78,0-.6.38-1.1,1.17-1.53a9,9,0,0,0,4.51.87A10.09,10.09,0,0,0,270,727c1.72-.79,2.6-1.91,2.6-3.32a2.82,2.82,0,0,0-1.87-3c-.5-.16-1.46-.41-2.93-.76l-.13,0-.13,0a26.19,26.19,0,0,0-4.39,1.69c-4.16,2-6.27,4.5-6.27,7.39,0,2.52,2.1,3.8,6.24,3.8a36.45,36.45,0,0,0,5.55-.42,10,10,0,0,0,3.77-1.09l.17-.1c.31-.18.77-.44.65-.92C273.26,730.12,273.09,729.72,272.36,729.79Zm-6.55-6.36a3.62,3.62,0,0,1,1.66-.38,2.71,2.71,0,0,1,1.82.65,3.29,3.29,0,0,1-2.67,1.38,2.56,2.56,0,0,1-2.05-1C265.4,723.67,265.69,723.51,265.81,723.43Z" transform="translate(-54.68 -104.49)"/><path class="cls-1" d="M279.83,720.38l-.35.29a6.52,6.52,0,0,0-2,2.73c-.53,1.44-.88,2.44-1.05,3,0,.06-.16.34-.84,1.44a3.66,3.66,0,0,0-.66,1.93v.11a2.43,2.43,0,0,0,0,.68,1.41,1.41,0,0,1,0,.2.91.91,0,0,0,.31.76.93.93,0,0,0,.61.17,5.44,5.44,0,0,0,1.41-.23,2.43,2.43,0,0,0,1.34-1.44l.72-1.8c1.93-5,1.93-5.38,1.93-5.59,0-.51-.37-1.12-1.16-1.92Z" transform="translate(-54.68 -104.49)"/><path class="cls-1" d="M301.12,724.22a4.47,4.47,0,0,0-.88-2.69,2.93,2.93,0,0,0-2.48-1.28,9.23,9.23,0,0,0-3.59,1.16c-.23.1-.94.46-2.14,1.1.21-.5.22-.55.21-.55h0a3.29,3.29,0,0,0,.21-1.28A1.34,1.34,0,0,0,291,719.2a1.76,1.76,0,0,0-1.28.41,3.61,3.61,0,0,0-.71,1.12c-.26.6-.49,1.2-.66,1.72a23.82,23.82,0,0,1-2.39,3.22c-2.18,2.6-3.37,4.63-3.53,6-.07.5,0,.84.3,1a1.53,1.53,0,0,0,.47.19l.1,0h.1a9.36,9.36,0,0,0,4.86-2.93c2-2.06,3.38-3.44,4.11-4.21a6.07,6.07,0,0,1,4.2-2c.9,0,1.27.36,1.27,1.24,0,.28-.21,1-1.64,3-1.25,1.71-1.83,2.88-1.83,3.66a1.55,1.55,0,0,0,.67,1.29,2.19,2.19,0,0,0,1.33.44,1.77,1.77,0,0,0,1.84-1.4l.06-.21-.12-.18a1.34,1.34,0,0,1-.18-.39,1.69,1.69,0,0,1,0-.21,12.48,12.48,0,0,0,2-3.09A9,9,0,0,0,301.12,724.22Z" transform="translate(-54.68 -104.49)"/><path class="cls-1" d="M284.17,715.13a1.54,1.54,0,0,0-.56-1.14l-.52-.49c-.9-1.63-1.24-2-1.47-2.13l-.71-.42-.05.82a5.64,5.64,0,0,1-.4,1.5,5.89,5.89,0,0,0-.42,1.86c0,.52.2,1.73,2,1.73S284.17,715.65,284.17,715.13Z" transform="translate(-54.68 -104.49)"/><path class="cls-2" d="M452.07,721.34a8.43,8.43,0,0,0-5-1.42,19.19,19.19,0,0,0-8.18,2.43c-3.75,1.9-5.58,3.86-5.58,6,0,3,2.91,4.51,8.63,4.51a20.87,20.87,0,0,0,7.56-1.39c3.28-1.28,4.94-3.12,4.94-5.47A5.36,5.36,0,0,0,452.07,721.34Zm-4.5,7.95a19,19,0,0,1-6.19,1.1,6.94,6.94,0,0,1-4.91-1.92,11.46,11.46,0,0,1,4.56-3.73,13.44,13.44,0,0,1,6.13-1.65,6.54,6.54,0,0,1,3,.63,2.22,2.22,0,0,1,1.42,2.07C451.55,727.2,450.21,728.38,447.57,729.29Z" transform="translate(-54.68 -104.49)"/><path class="cls-2" d="M427.09,721h-.17l-.47,0h-1.16c-1,0-1.07-.37-1.1-.45l-.4-2.72-1.12-.06c-.74.07-1.33.69-1.82,1.91a6.73,6.73,0,0,0-.51,2.28,18.4,18.4,0,0,1-.36,3.35,15.73,15.73,0,0,1-2,3.77,10.44,10.44,0,0,0-1.84,4.06l-.07.56h.56c2.11,0,3.64-1.26,4.57-3.74a32.33,32.33,0,0,1,1.79-4.27c.87-1.58,1.87-2.39,2.95-2.43l6,2-.13-.81C431.58,722.9,430.55,721,427.09,721Z" transform="translate(-54.68 -104.49)"/><path class="cls-2" d="M408.13,730.05a33.93,33.93,0,0,1-3.52.2c-3.65,0-3.65-1.33-3.65-1.77,0-.6.39-1.11,1.18-1.54a9,9,0,0,0,4.51.88,9.87,9.87,0,0,0,4.15-.93c1.73-.79,2.61-1.9,2.61-3.31a2.83,2.83,0,0,0-1.88-3c-.49-.16-1.48-.42-2.93-.76l-.13,0-.12,0a26.88,26.88,0,0,0-4.4,1.7c-4.16,2-6.26,4.49-6.26,7.38,0,2.52,2.1,3.8,6.24,3.8a37.87,37.87,0,0,0,5.55-.41c2.68-.41,4.35-1,5.12-1.86l.76-.84h-1.13C413.37,729.57,411.38,729.73,408.13,730.05Zm-1.54-6.71a3.62,3.62,0,0,1,1.66-.38,2.75,2.75,0,0,1,1.82.64A3.29,3.29,0,0,1,407.4,725a2.53,2.53,0,0,1-2-1Z" transform="translate(-54.68 -104.49)"/><path class="cls-2" d="M400.28,717.13,403,712a51.52,51.52,0,0,0,2.3-4.91l.27-.67-2-.05-1.21.25-.11.14a23,23,0,0,0-2.8,5.15l-2.71,6.25a10.27,10.27,0,0,1-2.69,4c-.46.32-1.67.74-4.81.93a25.21,25.21,0,0,0-3.06.29,3.79,3.79,0,0,1-.5-.25c.35-.52,1.39-1.93,4.46-5.79a7,7,0,0,0,1.81-4.19,4.23,4.23,0,0,0-.38-1.55l-.19-.45-.46.18c-.87.34-1.88,1.47-3.16,3.57l-1.37,2.23L384.61,720a15.08,15.08,0,0,1-2.11,2.31,4.89,4.89,0,0,0-.39.38,6.89,6.89,0,0,0-.75,1.07c-.1.17-.2.32-.25.42l-4.22,4.73a6.17,6.17,0,0,0-1.69,3.37l-.06.55h1c1.17.08,2.29-.63,3.43-2.18a15.15,15.15,0,0,1,3.3-3.61c1.86-1.26,4.56-1.89,8-1.89a12.7,12.7,0,0,1,1.31.06l-3.56,5.42c-2.82,4.26-3.14,5.57-3.14,6.19v.5h.5a8.75,8.75,0,0,0,2.15-.12,2.68,2.68,0,0,0,1.54-1.76c.26-.65.43-1.11.51-1.35a22.26,22.26,0,0,1,2.4-4l3-4.32a26.12,26.12,0,0,0,2.18-3.57C398.39,720.78,399.25,719.09,400.28,717.13Z" transform="translate(-54.68 -104.49)"/><polygon class="cls-2" points="88.35 466.36 34.23 466.36 34.23 420.16 0 420.16 0 545.56 34.23 545.56 34.23 495.35 88.35 495.35 88.35 545.56 122.57 545.56 122.57 420.16 88.35 420.16 88.35 466.36"/><path class="cls-2" d="M254.23,521.32c-37.78,0-63.07,26.06-63.07,65.15,0,40.65,25,66.46,64.12,66.46,31.27,0,52.63-14.34,60.72-41.44H279c-3.39,9.89-11.22,14.86-22.94,14.86-17.73,0-28.4-10.43-29.19-28.66H316c0-4.45.26-6,.26-8.09C316.26,547.38,292.28,521.32,254.23,521.32Zm-27.61,51.34c2.86-16.94,12.24-25.8,27.35-25.8,15.37,0,25.8,10.43,26.32,25.8Z" transform="translate(-54.68 -104.49)"/><path class="cls-2" d="M374.58,523.57c-12.18,2.39-43.29,11.74-43.29,59.25v67.23H366V594.54c0-20.57,2.87-30.22,11.46-36.47,5.22-4.17,12.77-6.52,21.63-6.52a42.6,42.6,0,0,1,9.39,1V524.13S394.58,519.65,374.58,523.57Z" transform="translate(-54.68 -104.49)"/><path class="cls-2" d="M477,521.32c-38.84,0-63.85,25.8-63.85,65.94,0,39.86,25,65.67,63.85,65.67,38.55,0,63.57-25.81,63.57-65.67C540.6,547.12,515.58,521.32,477,521.32Zm0,105.54c-18.26,0-28.93-14.84-28.93-39.6,0-25,10.41-39.61,28.93-39.61,18.22,0,28.65,14.33,28.65,39.34C505.68,612.29,495.25,626.86,477,626.86Z" transform="translate(-54.68 -104.49)"/><polygon class="cls-1" points="272.04 0 272.04 164.03 349.96 109.99 349.96 57.53 272.04 0"/><polygon class="cls-1" points="349.96 292.14 349.96 179.4 272.04 235.48 349.96 292.14"/><polygon class="cls-2" points="135.95 285.58 213.88 342.24 213.88 107.62 135.95 50.1 135.95 285.58"/></svg>