<svg xmlns="http://www.w3.org/2000/svg" viewBox="0 0 557.36 245.65"><defs><style>.cls-1{fill:#cb1d4d;}.cls-2{fill:#6d6e70;}.cls-3{fill:#fefefe;}</style></defs><title>Asset 2</title><g id="Layer_2" data-name="Layer 2"><g id="Layer_1-2" data-name="Layer 1"><g id="LG"><path class="cls-1" d="M245.59,123A122.44,122.44,0,0,1,122.35,245.65C54.8,245.7-.86,190.42,0,121.13.85,54.54,55.31-.75,124.11,0,190.2.73,245.91,54.87,245.59,123ZM116.82,67.67c-.56.86-.28,1.83-.28,2.75q0,41.4,0,82.8c0,8,0,16-.06,24,.26,1,1.11.7,1.74.7,11.06,0,22.12,0,33.18,0,1.49,0,1.88-.56,1.84-1.94-.08-2.74-.13-5.49,0-8.23.09-1.84-.63-2.23-2.32-2.2-6.35.08-12.71-.05-19.06.07-2.11,0-2.75-.51-2.74-2.72q.11-45.52.05-91.06c0-.78-.06-1.57,0-2.35.12-1.37-.33-2-1.83-2C123.87,67.67,120.34,67.64,116.82,67.67Zm10.79-47.81c-8.23-1-16.41-.1-24.44,1.47a101.43,101.43,0,0,0-60,35.53C28.82,74.11,21.1,94.16,19.67,116.51a95.82,95.82,0,0,0,2.74,30c1,4.06,2.22,8.09,3.33,12.14a2,2,0,0,0,0,1.8A103.13,103.13,0,0,0,43.84,191a95.6,95.6,0,0,0,12.7,12.16c21.45,17.31,45.84,25.2,73.38,23.41A99.81,99.81,0,0,0,159,220.38c24.72-9.37,43.35-25.79,55.85-49,8.85-16.44,12.55-34.15,12-52.79-.06-2.14-1.19-1.94-2.55-1.93H172.9c-6.67,0-13.35,0-20,0-1.65,0-2.21.47-2.13,2.13.12,2.66.13,5.34,0,8-.09,1.77.48,2.29,2.25,2.27,8.87-.08,17.75,0,26.62,0,10.76,0,21.52,0,32.27,0,1.62,0,2.24.4,2.13,2.11a66.86,66.86,0,0,1-1.18,8.6A91.17,91.17,0,0,1,180.25,194,89.32,89.32,0,0,1,131,214.08a86,86,0,0,1-24.83-1.16c-27.82-5.57-49-20.5-63.16-45-9.51-16.48-13.15-34.35-11.45-53.35a92.9,92.9,0,0,1,9.72-34A88.29,88.29,0,0,1,63.14,53.12c18.59-15.87,40.38-22.82,64.71-22,1.19,0,1.31-.34,1.31-1.26,0-3.21,0-6.43,0-9.65,0-.44.23-1.1-.32-1.24S127.85,19.32,127.61,19.86ZM83.72,67.58c-9.55,0-16.25,6.92-16.29,16.9,0,8,7.61,15.17,16.23,15.21s16.31-7.28,16.15-16C99.61,73.44,91.46,67.33,83.72,67.58Z"/><path class="cls-2" d="M557.3,150.12c0,11.86-.06,23.72.06,35.57A4.29,4.29,0,0,1,554.9,190c-9.49,5.67-19.86,8.89-30.59,11a136.58,136.58,0,0,1-48.21,1.43c-17.22-2.7-32.32-9.42-43.28-23.62-7-9.07-11-19.49-13.09-30.64C416.14,129,416,109.88,421,91c7.27-27.42,25.32-43.54,53-48.68,18.8-3.48,37.49-2.94,55.68,3.67a56.1,56.1,0,0,1,25.79,18.62c1.05,1.36,1,2.06-.3,3.22q-9.88,8.9-19.59,18c-1.25,1.17-2,1.43-3.26-.12-7.73-9.53-18-14-30.05-14.87A69,69,0,0,0,482,72.13c-14.13,3.22-22.56,12.31-26.22,26-3.13,11.75-3.23,23.72-2.18,35.74A68.53,68.53,0,0,0,456,147.07c4.12,14.23,13.68,22.28,28.11,24.7,12.43,2.1,24.69,1,36.81-2.28,1.88-.51,2.43-1.35,2.4-3.26q-.18-11.43,0-22.85c0-1.92-.6-2.33-2.4-2.32-8.32.09-16.65,0-25,.09-1.88,0-2.56-.37-2.53-2.42.12-8.32.1-16.64,0-25,0-1.79.37-2.4,2.3-2.39q29.68.1,59.37,0c1.77,0,2.24.47,2.23,2.24C557.27,125.78,557.3,138,557.3,150.12Z"/><path class="cls-2" d="M300.28,122c0-25.59,0-51.18,0-76.77,0-2.12.57-2.58,2.6-2.56q15.9.16,31.8,0c1.95,0,2.46.47,2.45,2.45-.06,40.82,0,81.64-.1,122.46,0,2.36.54,3,2.94,3,23.47-.1,46.95,0,70.42-.11,2,0,2.65.45,2.62,2.57q-.19,13.07,0,26.14c0,2-.57,2.41-2.48,2.41q-53.82-.09-107.63,0c-2,0-2.62-.41-2.61-2.54C300.31,173.32,300.28,147.64,300.28,122Z"/><path class="cls-3" d="M25.74,158.66c-1.11-4-2.29-8.08-3.33-12.14a95.82,95.82,0,0,1-2.74-30c1.43-22.35,9.15-42.4,23.49-59.65a101.43,101.43,0,0,1,60-35.53c8-1.57,16.21-2.5,24.45-1.47,0,2.51-.06,5,.11,7.53.12,1.84-.46,2.43-2.35,2.39a98.17,98.17,0,0,0-22.67,2.12C62.42,40.58,32,75.77,29.82,116.76c-1.36,25,5.9,47.28,22.25,66.43a89.87,89.87,0,0,0,22.87,19.34c20.58,12.11,42.65,16,66.06,11.24,23.82-4.8,42.73-17.44,57-37,10.15-13.91,15.57-29.67,17.18-46.77.14-1.5.22-2.56-2-2.54-19.71.16-39.41.17-59.12.29-1.73,0-2.66-.3-2.48-2.3a33.7,33.7,0,0,0,0-5.41c-.12-1.7.56-2.09,2.16-2.09q34.74,0,69.49-.07c1.44,0,2,.26,2,1.9a103.16,103.16,0,0,1-1.59,21.07c-4.82,25.61-17.36,46.72-37.92,62.73-22.18,17.25-47.46,24-75.4,21A100.41,100.41,0,0,1,69.94,211a99,99,0,0,1-25.81-21.75,116.57,116.57,0,0,1-14-21.45C28.55,164.82,27.72,161.46,25.74,158.66Z"/><path class="cls-3" d="M116.51,177.21c0-8,.06-16,.06-24q0-41.4,0-82.8c0-.92-.28-1.89.28-2.75.31,1,1.12.91,1.92.9,2.12,0,4.25.15,6.35,0s2.71.61,2.71,2.74c-.09,31.08-.07,62.17-.15,93.26,0,1.88.61,2.13,2.27,2.11,6.75-.1,13.51,0,20.26-.07,1.53,0,2.14.46,2,2a30.72,30.72,0,0,0-.19,5.16c.15,2.05-.38,2.81-2.65,2.77-9.81-.13-19.63,0-29.44-.05A5.58,5.58,0,0,0,116.51,177.21Z"/></g></g></g></svg>