<?xml version="1.0" encoding="utf-8"?>
<!-- Generator: Adobe Illustrator 22.1.0, SVG Export Plug-In . SVG Version: 6.00 Build 0)  -->
<svg version="1.1" id="Layer_1" xmlns="http://www.w3.org/2000/svg" xmlns:xlink="http://www.w3.org/1999/xlink" x="0px" y="0px"
	 viewBox="0 0 202.8 68.1" style="enable-background:new 0 0 202.8 68.1;" xml:space="preserve">
<style type="text/css">
	.st0{fill-rule:evenodd;clip-rule:evenodd;}
</style>
<g>
	<path class="st0" d="M192.1,31.9c-1.6,0-2.9,1.3-2.9,2.8c0,1.6,1.3,2.9,2.9,2.9c1.6,0,2.8-1.3,2.8-2.9
		C194.9,33.1,193.7,31.9,192.1,31.9L192.1,31.9L192.1,31.9L192.1,31.9z M192.1,37.2c-1.4,0-2.5-1.1-2.5-2.5c0-1.4,1.1-2.5,2.5-2.5
		c1.4,0,2.5,1.1,2.5,2.5C194.6,36.1,193.5,37.2,192.1,37.2L192.1,37.2L192.1,37.2L192.1,37.2z"/>
	<g>
		<path class="st0" d="M193.5,33.9c0-0.3-0.1-0.6-0.4-0.7c-0.2-0.1-0.5-0.2-0.8-0.2l0,0H191v3.2h0.4v-1.5h0.7l0.9,1.5h0.5l-1-1.5
			l0,0C193.1,34.8,193.5,34.6,193.5,33.9L193.5,33.9L193.5,33.9L193.5,33.9z M192,34.5h-0.6v-1.1h0.9l0,0c0.4,0,0.8,0.1,0.8,0.6
			C193.2,34.6,192.5,34.5,192,34.5L192,34.5L192,34.5L192,34.5z"/>
		<path class="st0" d="M175.4,18.5l5.8-6.2l0,0c0.3-0.5,0.5-0.8,0.5-1.1c0-0.5-0.4-0.6-1.6-0.6l0,0h-1.5V6.7h15.9v3.9h-2.1l0,0
			c-2.4,0-2.9,0.4-6.2,4.6l0,0l-9.2,10v6.1l0,0c0,1.6,0.8,2.1,3,2.1l0,0h3.5v3.8h-22.3v-3.8h3.5l0,0c2.2,0,3-0.5,3-2.1l0,0v-6.1
			l-10.9-12l0,0c-1.8-2.1-1.5-2.6-6.5-2.6l0,0V6.7h20.2v3.9H169l0,0c-1.5,0-2.1,0.3-2.1,0.8c0,0.5,0.4,0.8,0.7,1.2l0,0l5.5,6l0,0
			C173.8,19.3,174.6,19.4,175.4,18.5L175.4,18.5L175.4,18.5L175.4,18.5z"/>
		<path class="st0" d="M40.1,6.7h4.9v11h-4.5l0,0c-0.4-2.2-1.8-3-3-4.2c-2.3-2.1-7.1-3.8-11.3-3.8c-5.3,0-9.8,1.6-9.8,4.1
			c0,6.7,30.3,1.4,30.3,14.1c0,6.6-6.5,10.3-18.2,10.3c-4,0-10.2-1.3-13.8-3.2c-1.1-0.7-1.6,0.6-1.8,2.2l0,0H8V25.8h4.5l0,0
			c1,2.9,2.4,3.5,3.6,4.6c2.2,2,7.4,3.5,12.2,3.4c7.2-0.1,9.7-1.6,9.7-3.9c0-2.3-2.4-2.8-10.3-4.1l0,0l-6.7-1.1l0,0
			C13.3,23.6,7.8,22,7.8,15.9c0-6.3,7-10.2,18-10.2c4.6,0,8.5,0.6,12.2,2.7C39.1,9.1,40.1,9.2,40.1,6.7L40.1,6.7L40.1,6.7L40.1,6.7z
			"/>
		<path class="st0" d="M135,25.1l0.1-12.2l0,0c0-1.6-0.8-2.1-3.2-2.1l0,0h-2.8V6.9h17.8v3.8h-2.3l0,0c-2.4,0-3.2,0.5-3.2,2.1l0,0
			v24.5l-7-0.1L111.9,16v15.5l0,0c0,1.6,0.8,2.1,3.2,2.1l0,0h3.1v3.7H99.7v-3.7h3.1l0,0c2.4,0,3.2-0.6,3.2-2.1l0,0V12.9l0,0
			c0-1.6-0.8-2.1-3.2-2.1l0,0h-3.1V6.9h16L135,25.1L135,25.1L135,25.1z"/>
		<path class="st0" d="M75.5,5.5c-14.2,0-23,6.3-23,16.3c0,9.9,8.7,16.1,22.6,16.1c14.7,0,23.3-6.1,23.3-16.6
			C98.3,11.9,89.1,5.5,75.5,5.5L75.5,5.5L75.5,5.5L75.5,5.5z M75.2,33.9c-7.8,0-12.3-4.5-12.3-12.3c0-7.6,4.7-12.2,12.7-12.2
			c7.7,0,12.2,4.6,12.2,12.5C87.8,29.6,83.2,33.9,75.2,33.9L75.2,33.9L75.2,33.9L75.2,33.9z"/>
		<g>
			<g>
				<path d="M29.9,49.8c-2.4,0-4.2,1.1-5.4,3.3c-0.5-0.9-1.2-1.7-2-2.3c-1.9-1.3-4.2-1.4-6.3-0.2c-0.7,0.4-1.2,0.8-1.6,1.4v-1.9
					h-1.3v15.5h1.3v-9.8c0-1.3,0.4-2.4,1.3-3.3c0.9-0.9,2-1.3,3.3-1.3c1.3,0,2.4,0.5,3.3,1.6c1,1,1.5,2.2,1.5,3.6v9.3h1.3v-9.4
					c0-1.5,0.4-2.7,1.3-3.7c0.9-0.9,2-1.4,3.4-1.4c1.5,0,2.6,0.5,3.5,1.6c0.9,1.1,1.3,2.5,1.3,4.3v8.6h1.3v-8.7
					c0-2.2-0.5-3.9-1.6-5.1C33.3,50.5,31.8,49.8,29.9,49.8z"/>
				<path d="M51.5,53.6c-1.5-2.5-3.8-3.8-7-3.8c-2.1,0-4,0.8-5.6,2.4c-1.6,1.6-2.4,3.5-2.4,5.7c0,2.2,0.8,4.1,2.5,5.7
					c1.6,1.6,3.6,2.4,5.9,2.4c1.5,0,2.9-0.5,4.2-1.3c0.9-0.6,1.7-1.4,2.3-2.4c0,0.3,0,0.7,0,1.1v1c0,0.2,0,0.4,0,0.7v0.6h1.3V50.2
					h-1.3V53.6z M49.6,53.1c1.3,1.3,2,3,2,4.9c0,1.9-0.7,3.5-2,4.8c-1.3,1.3-2.9,2-4.8,2c-1.9,0-3.5-0.7-4.8-2c-1.3-1.3-2-2.9-2-4.8
					c0-1.9,0.7-3.5,2-4.8c1.3-1.3,2.9-2,4.7-2C46.6,51.1,48.2,51.8,49.6,53.1z"/>
				<path d="M66,50.1l-1.7,0l-7.7,10.2V44.4h-1.4v21.2h1.4v-3l2.8-3.8c2.3,2.8,4.1,5,5.3,6.7l0.1,0.1l1.8,0l-6.2-7.9L66,50.1z"/>
				<path d="M83.1,57.9c0-2.2-0.8-4.1-2.4-5.7c-1.6-1.6-3.4-2.4-5.6-2.4c-2.2,0-4.1,0.8-5.8,2.3c-1.6,1.5-2.5,3.4-2.5,5.5
					c0,2.4,0.8,4.4,2.4,6c1.6,1.6,3.6,2.4,6,2.4c1.5,0,3-0.5,4.3-1.4c1.3-0.9,2.3-2.1,3-3.6l0.2-0.4h-1.3l-0.1,0.1
					c-1,1.5-1.9,2.5-2.8,3c-1,0.6-2.3,0.9-3.9,0.9c-1.5,0-2.8-0.6-4-1.7c-1.2-1.1-1.9-2.4-2.1-3.9c0-0.3-0.1-0.6-0.1-0.8h14.9
					L83.1,57.9z M75.1,51.1c1.7,0,3.2,0.6,4.4,1.8c1.2,1.1,1.9,2.5,2.2,4H68.3c0.4-1.7,1.2-3.1,2.3-4.1
					C71.8,51.7,73.3,51.1,75.1,51.1z"/>
				<path d="M104.2,49.7c-1.5,0-3,0.4-4.3,1.2c-1,0.6-1.9,1.4-2.5,2.4l0.1-9.1H96v21.2h1.4v-3.2c0.6,0.9,1.4,1.7,2.4,2.3
					c1.3,0.9,2.8,1.3,4.2,1.3c2.2,0,4.2-0.8,5.8-2.3c1.6-1.6,2.5-3.4,2.5-5.6c0-2.3-0.8-4.3-2.4-5.9
					C108.4,50.5,106.4,49.7,104.2,49.7z M110.9,57.9c0,2-0.7,3.6-2,4.8c-1.3,1.2-3.1,1.9-5.2,1.9c-1.7,0-3.1-0.7-4.4-2
					c-1.3-1.4-1.9-2.9-1.9-4.6c0-1.9,0.7-3.5,2-4.8c1.3-1.3,2.9-2,4.8-2c1.9,0,3.5,0.7,4.8,2C110.3,54.4,110.9,56,110.9,57.9z"/>
				<path d="M129.4,57.9c0-2.2-0.8-4.1-2.4-5.7c-1.6-1.6-3.4-2.4-5.6-2.4c-2.2,0-4.1,0.8-5.8,2.3c-1.6,1.5-2.5,3.4-2.5,5.5
					c0,2.4,0.8,4.4,2.4,6c1.6,1.6,3.6,2.4,6,2.4c1.5,0,3-0.5,4.3-1.4c1.3-0.9,2.3-2.1,3-3.6l0.2-0.4h-1.3l-0.1,0.1
					c-1,1.5-1.9,2.5-2.8,3c-1,0.6-2.3,0.9-3.9,0.9c-1.5,0-2.8-0.6-4-1.7c-1.2-1.1-1.9-2.4-2.1-3.9c0-0.3-0.1-0.6-0.1-0.8h14.9
					L129.4,57.9z M121.3,51.1c1.7,0,3.2,0.6,4.4,1.8c1.2,1.1,1.9,2.5,2.2,4h-13.4c0.4-1.7,1.2-3.1,2.3-4.1
					C118.1,51.7,119.6,51.1,121.3,51.1z"/>
				<rect x="131.3" y="44.4" width="1.3" height="21.1"/>
				<rect x="135" y="50.2" width="1.3" height="15.4"/>
				<rect x="135" y="44.4" width="1.3" height="2.9"/>
				<path d="M154.4,57.9c0-2.2-0.8-4.1-2.4-5.7c-1.6-1.6-3.4-2.4-5.6-2.4c-2.2,0-4.1,0.8-5.8,2.3c-1.6,1.5-2.5,3.4-2.5,5.5
					c0,2.4,0.8,4.4,2.4,6c1.6,1.6,3.6,2.4,6,2.4c1.5,0,3-0.5,4.3-1.4c1.3-0.9,2.3-2.1,3-3.6l0.2-0.4h-1.3l-0.1,0.1
					c-1,1.5-1.9,2.5-2.8,3c-1,0.6-2.3,0.9-3.9,0.9c-1.5,0-2.8-0.6-4-1.7c-1.2-1.1-1.9-2.4-2.1-3.9c0-0.3-0.1-0.6-0.1-0.8h14.9
					L154.4,57.9z M146.3,51.1c1.7,0,3.2,0.6,4.4,1.8c1.2,1.1,1.9,2.5,2.2,4h-13.4c0.4-1.7,1.2-3.1,2.3-4.1
					C143.1,51.7,144.6,51.1,146.3,51.1z"/>
				<polygon points="160.7,63.8 155.2,50.1 153.8,50.1 160,65.5 161.4,65.5 167.8,50.2 166.4,50.1 				"/>
				<path d="M182.6,60.8c-1,1.5-1.9,2.5-2.8,3c-1,0.6-2.3,0.9-3.9,0.9c-1.5,0-2.8-0.6-4-1.7c-1.2-1.1-1.9-2.4-2.1-3.9
					c0-0.3-0.1-0.6-0.1-0.8h14.9l0-0.3c0-2.2-0.8-4.1-2.4-5.7c-1.6-1.6-3.4-2.4-5.6-2.4c-2.2,0-4.1,0.8-5.8,2.3
					c-1.6,1.5-2.5,3.4-2.5,5.5c0,2.4,0.8,4.4,2.3,6c1.6,1.6,3.6,2.4,6,2.4c1.5,0,3-0.5,4.3-1.4c1.3-0.9,2.3-2.1,3-3.6l0.2-0.4h-1.3
					L182.6,60.8z M176.4,51.1c1.7,0,3.2,0.6,4.4,1.8c1.2,1.1,1.9,2.5,2.2,4h-13.4c0.4-1.7,1.2-3.1,2.3-4.1
					C173.2,51.7,174.7,51.1,176.4,51.1z"/>
			</g>
			<path d="M91.1,63.4c0,1.4-1.2,2.6-2.6,2.6c-1.4,0-2.6-1.2-2.6-2.6c0-1.4,1.2-2.6,2.6-2.6C90,60.8,91.1,62,91.1,63.4z"/>
		</g>
	</g>
</g>
</svg>
