<?xml version="1.0" encoding="utf-8"?>
<!-- Generator: Adobe Illustrator 22.1.0, SVG Export Plug-In . SVG Version: 6.00 Build 0)  -->
<svg version="1.1" id="Layer_1" xmlns="http://www.w3.org/2000/svg" xmlns:xlink="http://www.w3.org/1999/xlink" x="0px" y="0px"
	 viewBox="0 0 512 512" style="enable-background:new 0 0 512 512;" xml:space="preserve">
<style type="text/css">
	.st0{fill:#FFFFFF;}
</style>
<g>
	<g>
		<g>
			<path class="st0" d="M366.3,216L241.4,325.8c-0.2,0.1-0.3,0.3-0.5,0.4c-4,4-6.3,9.4-6.3,15.1c0,11.8,9.6,21.3,21.3,21.3
				c5.7,0,11-2.2,15.6-6.8L381.4,231c3.7-4.2,3.5-10.6-0.5-14.6C376.9,212.5,370.5,212.3,366.3,216z"/>
			<path class="st0" d="M256,85.3c-141.2,0-256,114.8-256,256c0,26.5,4.1,52.7,12.2,77.9c1.4,4.4,5.5,7.4,10.2,7.4h467.3
				c4.6,0,8.8-3,10.2-7.4c8.1-25.2,12.2-51.4,12.2-77.9C512,200.2,397.2,85.3,256,85.3z M458.7,352h31.3c-0.8,18-3.2,35.9-8.2,53.3
				H30.3c-4.9-17.4-7.4-35.3-8.2-53.3h31.3c5.9,0,10.7-4.8,10.7-10.7s-4.8-10.7-10.7-10.7H21.9c1.6-34.9,10.7-67.9,25.9-97.2
				l27.3,15.8c1.7,1,3.5,1.4,5.3,1.4c3.7,0,7.3-1.9,9.2-5.3c3-5.1,1.2-11.6-3.9-14.6L58.5,215c18.3-28.5,42.6-52.8,71.1-71.1
				l15.7,27.3c2,3.4,5.6,5.3,9.2,5.3c1.8,0,3.6-0.5,5.3-1.4c5.1-2.9,6.9-9.5,3.9-14.6l-15.8-27.3c29.3-15.3,62.3-24.4,97.2-26v31.5
				c0,5.9,4.8,10.7,10.7,10.7s10.7-4.8,10.7-10.7v-31.5c34.9,1.6,67.9,10.7,97.2,26l-15.8,27.3c-3,5.1-1.2,11.6,3.9,14.6
				c1.7,1,3.5,1.4,5.3,1.4c3.7,0,7.3-1.9,9.2-5.3l15.7-27.3c28.5,18.3,52.8,42.6,71.1,71.1l-27.3,15.7c-5.1,2.9-6.9,9.5-3.9,14.6
				c2,3.4,5.6,5.3,9.2,5.3c1.8,0,3.6-0.5,5.3-1.4l27.3-15.8c15.3,29.3,24.4,62.3,25.9,97.2h-31.5c-5.9,0-10.7,4.8-10.7,10.7
				C448,347.2,452.8,352,458.7,352z"/>
		</g>
	</g>
</g>
</svg>
