<?xml version="1.0" encoding="utf-8"?>
<!-- Generator: Adobe Illustrator 22.1.0, SVG Export Plug-In . SVG Version: 6.00 Build 0)  -->
<svg version="1.1" id="Capa_1" xmlns="http://www.w3.org/2000/svg" xmlns:xlink="http://www.w3.org/1999/xlink" x="0px" y="0px"
	 viewBox="0 0 512 512" style="enable-background:new 0 0 512 512;" xml:space="preserve">
<style type="text/css">
	.st0{fill:#FFFFFF;}
</style>
<g>
	<g>
		<path class="st0" d="M426.7,0H281.6C258,0,239,19.1,238.9,42.7c0,9.3,3.1,18.3,8.8,25.6h-42.9c-80.1,0.1-145,65-145.1,145.1v178.3
			l-16.5,80.6c-1.6,7.9,0.3,16.2,5.3,22.5c4.3,5.4,10.9,8.6,17.8,8.7h37.8c6.9-0.1,13.5-3.2,17.8-8.7c5-6.3,7-14.6,5.3-22.5
			l-16.5-80.6V221.9c0.1-53.1,40.6-97.3,93.5-101.9c-21.2,16.1-33.7,41.2-33.7,67.8v315.7c0,4.7,3.8,8.5,8.5,8.5H384
			c4.7,0,8.5-3.8,8.5-8.5V187.7c0-37.3-24.2-70.2-59.7-81.4V93.9c0-11.2-7.4-21.1-18.2-24.4c2.7-3.3,4.9-7,6.6-11l61.8,65.1
			c10,10,26.1,10.1,36.2,0.1s10.1-26.1,0.1-36.2l-34.5-36.4h76c4.7,0,8.5-3.8,8.5-8.5C469.3,19.1,450.2,0,426.7,0z M76.8,341.3h17.1
			V384H76.8V341.3z M108.9,484c-1.1,1.5-2.8,2.3-4.6,2.4H66.4c-1.8-0.1-3.5-0.9-4.6-2.4c-1.8-2.3-2.5-5.4-1.9-8.3l15.3-74.7h20.2
			l15.3,74.7v0C111.3,478.6,110.7,481.7,108.9,484z M93.9,221.9v102.4H76.8V213.3c0.1-70.7,57.3-127.9,128-128h25.6v17.1h-17.1
			C147.4,102.5,93.9,155.9,93.9,221.9z M375.5,494.9H187.7v-42.7h187.7L375.5,494.9L375.5,494.9z M375.5,435.2H187.7V204.8h187.7
			L375.5,435.2L375.5,435.2z M375.5,187.7H187.7c0-37.7,30.6-68.2,68.3-68.3h51.2C344.9,119.5,375.4,150,375.5,187.7z M315.7,93.9
			v8.5h-68.3V85.3h59.7C311.9,85.3,315.7,89.2,315.7,93.9z M407.1,99.5c1.6,1.6,2.5,3.8,2.5,6c0,2.3-0.9,4.4-2.6,6
			c-3.3,3-8.4,3.1-11.8,0.2l-57.4-60.5h23.5L407.1,99.5z M315.7,34.1c-4.7,0-8.5,3.8-8.5,8.5c0,14.1-11.5,25.6-25.6,25.6
			c-14.1,0-25.6-11.5-25.6-25.6c0-14.1,11.5-25.6,25.6-25.6h145.1c10.8,0,20.5,6.8,24.1,17.1H315.7z"/>
	</g>
</g>
</svg>
