<?xml version="1.0" encoding="utf-8"?>
<!-- Generator: Adobe Illustrator 22.1.0, SVG Export Plug-In . SVG Version: 6.00 Build 0)  -->
<svg version="1.1" id="Layer_1" xmlns="http://www.w3.org/2000/svg" xmlns:xlink="http://www.w3.org/1999/xlink" x="0px" y="0px"
	 viewBox="0 0 512 512" style="enable-background:new 0 0 512 512;" xml:space="preserve">
<style type="text/css">
	.st0{fill:#FFFFFF;}
</style>
<g>
	<g>
		<path class="st0" d="M447.3,304.8l-0.4-5c-5.9-76.4-41.4-124.2-72.8-166.4C345.1,94.3,320,60.5,320,10.7c0-4-2.2-7.7-5.8-9.5
			c-3.6-1.8-7.8-1.5-11.1,0.8C256,35.7,216.7,92.5,203,146.7c-9.5,37.7-10.8,80.2-11,108.2c-43.5-9.3-53.4-74.4-53.5-75.1
			c-0.5-3.4-2.6-6.3-5.6-7.9c-3-1.6-6.6-1.7-9.7-0.2c-2.3,1.1-56,28.4-59.1,137.4C64,312.8,64,316.4,64,320
			c0,105.9,86.1,192,192,192s192-86.1,192-192C448,314.7,447.6,309.7,447.3,304.8z M256,490.7c-35.3,0-64-30.6-64-68.2
			c0-1.3,0-2.6,0.1-4.2c0.4-15.9,3.4-26.7,6.7-33.9c6.2,13.3,17.3,25.5,35.2,25.5c5.9,0,10.7-4.8,10.7-10.7
			c0-15.2,0.3-32.7,4.1-48.5c3.4-14,11.4-28.9,21.6-40.9c4.5,15.5,13.4,28.1,22,40.3c12.3,17.5,25.1,35.7,27.3,66.6
			c0.1,1.8,0.3,3.7,0.3,5.7C320,460.1,291.3,490.7,256,490.7z M323.4,476.7c11.1-15.1,17.9-33.8,17.9-54.2c0-2.5-0.2-4.8-0.5-9.2
			c-2.5-34.8-17.7-56.3-31-75.3c-11.4-16.2-21.2-30.1-21.2-49.9c0-4.1-2.3-7.8-5.9-9.6c-3.6-1.8-8-1.4-11.2,1
			C251.1,295,234,321,228.1,345.8c-3,12.7-4.1,26.5-4.5,37.9c-7.4-8-9.7-22.7-9.7-22.9c-0.5-3.4-2.6-6.4-5.7-8
			c-3.1-1.6-6.7-1.6-9.8,0c-2.7,1.4-26.3,14.9-27.7,64.7c-0.1,1.7-0.1,3.4-0.1,5.1c0,20.5,6.9,39.1,17.9,54.2
			C127.9,450.6,85.3,390.2,85.3,320c0-3.2,0-6.4,0.2-9.9c1.8-63.9,22.3-95.6,35.6-109.6c9.3,33.3,33.7,76.9,81.5,76.9
			c5.9,0,10.7-4.8,10.7-10.7c0-35.7,0.8-76.9,10.3-114.7c10.8-42.8,40.5-89,76.3-120.3c5.9,45.7,30.8,79.2,57,114.4
			c31.1,41.9,63.2,85.1,68.6,155.2l0.4,5.1c0.3,4.4,0.7,8.9,0.7,13.6C426.7,390.2,384.1,450.6,323.4,476.7z"/>
	</g>
</g>
</svg>
