<?xml version="1.0" encoding="utf-8"?>
<!-- Generator: Adobe Illustrator 22.1.0, SVG Export Plug-In . SVG Version: 6.00 Build 0)  -->
<svg version="1.1" id="Capa_1" xmlns="http://www.w3.org/2000/svg" xmlns:xlink="http://www.w3.org/1999/xlink" x="0px" y="0px"
	 viewBox="0 0 512 512" style="enable-background:new 0 0 512 512;" xml:space="preserve">
<style type="text/css">
	.st0{fill:#FFFFFF;}
</style>
<g>
	<g>
		<path class="st0" d="M436,229l-76.5-76.5c-1.6-1.6-3.6-2.6-5.8-3l-64-10.7c-4.2-0.7-8.6,1.3-10.9,5l-21.3,35.7
			c-2.5,4.2-1.9,9.6,1.6,13l106.7,106.7c2.1,2.1,4.8,3.1,7.5,3.1s5.5-1,7.5-3.1L436,244C440.2,239.9,440.2,233.1,436,229z
			 M346.9,170l36.5,36.5c-9.7,3.9-21.3,1.9-29.1-6l-35.1-35.1L346.9,170z M373.3,276.6l-93.3-93.3l10-16.8l49,49
			c9.4,9.4,21.8,14.1,34.2,14.1c9,0,17.9-2.6,25.8-7.5l14.3,14.3L373.3,276.6z"/>
	</g>
</g>
<g>
	<g>
		<path class="st0" d="M40.8,132.6c-4-5.8-13.6-5.8-17.5,0C16.3,142.7,0,167.7,0,181.3c0,17.6,14.4,32,32,32s32-14.4,32-32
			C64,167.7,47.8,142.7,40.8,132.6z M32,192c-5.9,0-10.7-4.8-10.7-10.6c0.1-3.3,4.5-12.6,10.7-22.9c6.1,10.3,10.6,19.6,10.7,22.9
			C42.7,187.2,37.9,192,32,192z"/>
	</g>
</g>
<g>
	<g>
		<path class="st0" d="M501,324.8l7.9-7.9c4.2-4.2,4.2-10.9,0-15.1l-35.1-35.1l12.5-12.5c16.6-16.6,16.6-43.7,0-60.3L419.4,127
			c3.5-6.1,5.4-13.1,5.4-20.4c0-10.9-4.3-21.2-12-28.9L395,59.9c-11.6-11.6-28.9-15.1-44-9l-81.7,32.6l-37.7-37.7
			c-4.2-4.2-10.9-4.2-15.1,0l-0.3,0.3C193.2,26.4,154.1,0,107.8,0C45.3,0,6.4,25.6,4.7,26.7c-4.9,3.3-6.2,9.9-2.9,14.8L25.5,77
			c3.2,4.8,9.8,6.1,14.6,3c0.3-0.1,25.9-16,67.7-16c25.7,0,49.8,16.2,63.8,27.8c-1.7,3.9-1,8.6,2.2,11.8l39.5,39.5v46.3
			c0,11.2,4.6,22.2,12.5,30.2l117.3,117.3c8.1,8.1,18.8,12.5,30.2,12.5c7.1,0,13.8-1.9,19.9-5.1l36.6,36.6c2.1,2.1,4.8,3.1,7.5,3.1
			s5.5-1,7.5-3.1l1.6-1.6c-7,39-41.1,68.7-82.1,68.7h-55.1c-5.9,0-10.7,4.8-10.7,10.7v42.7c0,5.9,4.8,10.7,10.7,10.7h55.1
			c81.4,0,147.6-66.2,147.6-147.6C512,350.3,508.1,336.8,501,324.8z M107.8,42.7c-33.3,0-57.5,8.7-70,14.5L26,39.3
			c13.9-6.8,42.7-18,81.9-18c39.4,0,74.4,24,93.2,39.9l-14.9,14.9C168.6,61.3,140.1,42.7,107.8,42.7z M388.4,321.8
			c-8.3,8.4-21.9,8.3-30.2,0L240.9,204.5c-4-4-6.3-9.5-6.3-15.1v-50.8c0-2.8-1.1-5.5-3.1-7.5L196.4,96L224,68.4l35.1,35.1
			c3,3,7.5,4,11.5,2.4l88.2-35.3c7.3-2.9,15.5-1.2,21,4.3l17.9,17.9c3.7,3.7,5.7,8.6,5.7,13.8c0,5.2-2,10.1-5.7,13.8
			c-4.2,4.2-4.2,10.9,0,15.1l73.4,73.4c8.3,8.3,8.3,21.9,0,30.2L388.4,321.8z M437.3,358.3l-27.6-27.6l48.9-48.9l27.6,27.6
			L437.3,358.3z M364.4,490.7H320v-21.3h44.4c57.9,0,104.9-47.1,104.9-104.9c0-2.4-0.3-4.7-0.8-7.1l16.7-16.7
			c3.5,7.5,5.4,15.5,5.4,23.9C490.7,434,434,490.7,364.4,490.7z"/>
	</g>
</g>
</svg>
