<?xml version="1.0" encoding="utf-8"?>
<!-- Generator: Adobe Illustrator 22.1.0, SVG Export Plug-In . SVG Version: 6.00 Build 0)  -->
<svg version="1.1" id="Layer_1" xmlns="http://www.w3.org/2000/svg" xmlns:xlink="http://www.w3.org/1999/xlink" x="0px" y="0px"
	 viewBox="0 0 640 640" style="enable-background:new 0 0 640 640;" xml:space="preserve">
<style type="text/css">
	.st0{fill:#FFFFFF;}
</style>
<g id="surface1">
	<path class="st0" d="M510.1,0h-288c-29.4,0-53.3,23.9-53.3,53.3v59.6l-10.7,10.7l-31.5-31.5c-4.2-4.2-10.9-4.2-15.1,0l-75.4,75.4
		c-4.2,4.2-4.2,10.9,0,15.1l31.5,31.5l-13,13c-2,2-3.1,4.7-3.1,7.5V544c0.1,53,43,95.9,96,96h362.7c53-0.1,95.9-43,96-96V96
		C606.1,43,563.1,0.1,510.1,0z M398.3,106.7H232.8v-32c0-5.9,4.8-10.7,10.7-10.7h189L398.3,106.7z M190.1,53.3c0-17.7,14.3-32,32-32
		h244.5l-17.1,21.3H243.5c-17.7,0-32,14.3-32,32v32h-21.3V53.3z M58.8,175l60.3-60.3l24,24L82.7,199L58.8,175z M584.8,544
		c-0.1,41.2-33.5,74.6-74.7,74.7H147.5c-41.2-0.1-74.6-33.5-74.7-74.7V239.1L183.9,128h219.6c3.2,0,6.3-1.5,8.3-4l82.1-102.7h16.2
		c41.2,0.1,74.6,33.5,74.7,74.7L584.8,544L584.8,544z"/>
	<path class="st0" d="M485.7,220.9c4.1-4.2,4-11-0.3-15.1c-4.1-4-10.7-4-14.8,0L420.4,256H237.2l-44.9-44.9c-4.2-4.1-11-4-15.1,0.3
		c-4,4.1-4,10.7,0,14.8l44.9,44.9v183.2l-44.9,44.9c-4.2,4.1-4.4,10.8-0.3,15.1c4.1,4.2,10.8,4.3,15.1,0.3c0.1-0.1,0.2-0.2,0.3-0.3
		l44.9-44.9h183.2l50.2,50.2c4.2,4.1,11,4,15.1-0.3c4-4.1,4-10.7,0-14.8l-50.2-50.2V271.1L485.7,220.9z M243.5,277.3h170.7V448
		H243.5V277.3z"/>
</g>
</svg>
