<?xml version="1.0" encoding="utf-8"?>
<!-- Generator: Adobe Illustrator 22.1.0, SVG Export Plug-In . SVG Version: 6.00 Build 0)  -->
<svg version="1.1" id="Layer_1" xmlns="http://www.w3.org/2000/svg" xmlns:xlink="http://www.w3.org/1999/xlink" x="0px" y="0px"
	 viewBox="0 0 800 800" style="enable-background:new 0 0 800 800;" xml:space="preserve">
<style type="text/css">
	.st0{fill:#419DD7;}
	.st1{fill:#FFFFFF;}
</style>
<g>
	<g>
		<ellipse class="st0" cx="399.8" cy="399.4" rx="326.3" ry="326.3"/>
	</g>
	<g>
		<path class="st1" d="M399.8,666.8c-147.5,0-267.4-120-267.4-267.5c0-147.5,120-267.5,267.4-267.5c147.5,0,267.5,120,267.5,267.5
			C667.2,546.9,547.2,666.8,399.8,666.8z M399.8,139.8c-143.1,0-259.6,116.5-259.6,259.6c0,143.2,116.5,259.6,259.6,259.6
			c143.2,0,259.6-116.5,259.6-259.6C659.4,256.2,542.9,139.8,399.8,139.8z"/>
	</g>
	<g>
		<path class="st1" d="M519.5,338.9c14.1-15.9,109.1-125,109.1-125l-0.3-0.7l-0.6-0.3l-99.3,89.7c0,0-1.5,1.4-3,0c-1.5-1.5,0-3,0-3
			l89.1-99.8l-0.3-0.7l-0.7-0.3l-99.6,89.3c0,0-1.5,1.5-2.9,0.1c-1.3-1.3,0.1-2.9,0.1-2.9l89.3-99.6l-0.3-0.7l-0.7-0.3l-99.8,89.1
			c0,0-1.6,1.4-3,0c-1.4-1.4,0-3,0-3l89.7-99.3l-0.3-0.6l-0.6-0.3c0,0-109.1,95-125,109.1c-1.5,1.3-1.6,2.9-0.8,4.7
			c3,5.9,7.9,22-1.8,44.7c-9.5,23.9-221.1,206.7-267.7,245.6c-11.6,9.7-22.5,28.8-17.9,52.4l0,0c23.6,4.6,42.7-6.3,52.4-17.9
			c38.9-46.6,221.7-258.1,245.6-267.7c22.7-9.7,38.8-4.8,44.7-1.8C516.5,340.6,518.1,340.4,519.5,338.9z M194.7,576.5
			c9.1-7.6,12.6-9.2,12.6-9.2s-14.9,12.5-20.6,21.3c-5,7.4-9.2,16.4-11.3,34.7C173.3,602,184,585.4,194.7,576.5z M514.1,336.7
			c-5.9-3-21.4-8.5-44.1,1.2c0,0,14.8-9,36.4-6.5c3,0.3,9.9,1.6,13.6-1.3c4.1-3.3,10.5-9.7,25.7-25.3c-12.7,14.8-23,26.7-27,31.2
			C517.4,337.4,515.8,337.6,514.1,336.7z"/>
		<path class="st1" d="M599.3,567.5c-23.9-19.9-118.2-104.4-202.7-186.8c-78.5-91.1-177.2-178.8-191.2-194.8
			c-15-17.1-30.5-6.5-21.5,24.9c14.8,51.8,110.8,161.4,186.9,190.5c1.6,0.9,2.4,1.1,3.8,2.1C405,422.8,527.7,557.6,564.8,602
			c9.6,11.6,28.8,22.5,52.4,17.9l0,0C621.8,596.3,610.9,577.2,599.3,567.5z M193.1,224c0,0-2.1-2.6-4.7-10.4
			c-6.3-19.5-4.2-30.5,2.4-33c-5.1,4.6-5.2,12.5-4,20.8C188.6,212.6,193.1,224,193.1,224z M382.6,401.6c-2.8,2.8-6.4,0.6-7.5-0.5
			c0,0,2.9-0.1,5.1-2.3l14.7-14.7c1.9-1.8,4.4,0.8,2.5,2.6L382.6,401.6z M613.4,615.3c-2.1-18.3-6.2-27.3-11.3-34.7
			c-5.6-8.8-20.6-21.3-20.6-21.3s3.5,1.7,12.6,9.2C604.9,577.5,615.6,594.1,613.4,615.3z"/>
	</g>
</g>
</svg>
