<svg xmlns="http://www.w3.org/2000/svg" viewBox="0 0 614.69 537.44"><defs><style>.cls-1{fill:#3d7edb;fill-rule:evenodd;}</style></defs><title>Tata Logo</title><polygon class="cls-1" points="0 384.18 147.98 384.18 147.98 429.21 105.54 429.21 105.54 537.44 43.87 537.44 43.87 429.21 0 429.21 0 384.18 0 384.18 0 384.18"/><polygon class="cls-1" points="222.92 446.1 191.78 537.44 132.55 537.44 190.64 384.18 254.94 384.18 314.41 537.44 254.48 537.44 222.92 446.1 222.92 446.1 222.92 446.1"/><polygon class="cls-1" points="300.28 384.18 448.25 384.18 448.25 429.21 405.81 429.21 405.81 537.44 344.15 537.44 344.15 429.21 300.28 429.21 300.28 384.18 300.28 384.18 300.28 384.18"/><polygon class="cls-1" points="523.2 446.1 492.05 537.44 432.83 537.44 490.91 384.18 555.21 384.18 614.69 537.44 554.75 537.44 523.2 446.1 523.2 446.1 523.2 446.1"/><path class="cls-1" d="M613,132.52a136.66,136.66,0,0,0-21.78-30.93C571,79.72,542.38,61.53,508.54,49c-34.09-12.65-73-19.33-112.54-19.33S317.55,36.32,283.46,49c-33.84,12.56-62.44,30.75-82.7,52.62A137,137,0,0,0,179,132.53c44-10.64,119.39-24.71,189.34-26.19,6.75-.15,11.4,2,14.46,5.88,3.73,4.73,3.44,21.57,3.34,29.09h0l-2,194.62h0c3.95.13,7.91.22,11.87.22s8-.07,11.91-.21h0l-2-194.63h0c-.1-7.52-.38-24.36,3.35-29.09,3.06-3.87,7.7-6,14.45-5.88C493.65,107.81,569,121.88,613,132.52Z" transform="translate(-88.66 -29.64)"/><path class="cls-1" d="M622.4,157.82c-64.46-14.57-107.5-17.26-150-19.62-37-2-37.5,11.17-33.8,36.44.23,1.54.53,3.48.89,5.7,12.41,73.55,27.87,136.85,30.54,147.58,90.27-20.62,155.37-77.83,155.37-145a107,107,0,0,0-3-25.07Z" transform="translate(-88.66 -29.64)"/><path class="cls-1" d="M353.44,174.64c3.7-25.27,3.22-38.49-33.8-36.44-42.5,2.36-85.56,5.05-150,19.63a107.43,107.43,0,0,0-3,25.06c0,29.05,11.82,57.16,34.17,81.3,20.26,21.87,48.86,40.07,82.7,52.62A295.93,295.93,0,0,0,322,328.05c2.5-10.07,18.32-74.69,30.89-149.56.22-1.44.43-2.76.59-3.85Z" transform="translate(-88.66 -29.64)"/></svg>